<!DOCTYPE svg PUBLIC "-//W3C//DTD SVG 1.1//EN" "http://www.w3.org/Graphics/SVG/1.1/DTD/svg11.dtd">

<!-- Uploaded to: SVG Repo, www.svgrepo.com, Transformed by: SVG Repo Mixer Tools -->
<svg fill="#000000" version="1.1" id="Layer_1" xmlns="http://www.w3.org/2000/svg" xmlns:xlink="http://www.w3.org/1999/xlink" viewBox="0 0 496 496" xml:space="preserve" width="16px" height="16px">

<g id="SVGRepo_bgCarrier" stroke-width="0"/>

<g id="SVGRepo_tracerCarrier" stroke-linecap="round" stroke-linejoin="round"/>

<g id="SVGRepo_iconCarrier"> <g> <g> <g> <path d="M496,0H0v368h167.128c-2.832,7.824-2.616,16.504,0.832,24.128L159.304,496h20.008L200,475.312L220.688,496H240v-65.144 c2.576,0.672,5.224,1.144,8,1.144s5.424-0.472,8-1.136V496h19.312L296,475.312L316.688,496h20.008l-8.664-103.872 c3.448-7.624,3.664-16.304,0.824-24.128H496V0z M224,476.688l-24-24l-22.936,22.936l5.68-68.216 c10.696,5.368,23.768,4.472,33.568-2.912c0.888,6.296,3.68,11.944,7.688,16.512V476.688z M296,452.688l-24,24v-55.68 c4-4.568,6.8-10.216,7.688-16.512c9.8,7.368,22.864,8.288,33.568,2.904l5.68,68.216L296,452.688z M320,344 c-0.92,0-1.808-0.144-2.688-0.288l-6.696-1.152l-2.216,6.424c-0.824,2.368-1.784,4.664-2.864,6.896l-2.952,6.104l5.536,3.912 c0.736,0.52,1.472,1.064,2.112,1.696c6.24,6.24,6.24,16.392,0,22.632c-6.232,6.232-16.392,6.24-22.608,0.024 c-0.656-0.664-1.192-1.4-1.72-2.136l-3.912-5.536l-6.104,2.952c-2.232,1.088-4.528,2.048-6.896,2.864l-6.424,2.216l1.152,6.696 c0.136,0.888,0.28,1.776,0.28,2.696c0,8.824-7.176,16-16,16c-8.824,0-16-7.176-16-16c0-0.92,0.144-1.808,0.288-2.688l1.152-6.696 l-6.424-2.216c-2.368-0.824-4.664-1.784-6.896-2.864l-6.104-2.952l-3.912,5.536c-0.52,0.736-1.064,1.472-1.696,2.112 c-6.24,6.24-16.408,6.224-22.632,0c-6.24-6.24-6.24-16.392-0.024-22.608c0.664-0.656,1.4-1.192,2.136-1.72l5.536-3.912 l-2.952-6.104c-1.088-2.232-2.048-4.528-2.864-6.896l-2.216-6.424l-6.696,1.152c-0.888,0.136-1.776,0.28-2.696,0.28 c-8.824,0-16-7.176-16-16c0-8.824,7.176-16,16-16c0.92,0,1.808,0.144,2.688,0.288l6.696,1.152l2.216-6.424 c0.824-2.368,1.784-4.664,2.864-6.896l2.952-6.104l-5.536-3.912c-0.736-0.52-1.472-1.064-2.112-1.696 c-6.24-6.24-6.24-16.392,0-22.632c6.232-6.232,16.392-6.24,22.608-0.024c0.656,0.664,1.192,1.4,1.72,2.136l3.912,5.536 l6.104-2.952c2.232-1.088,4.528-2.048,6.896-2.864l6.424-2.216l-1.152-6.696c-0.136-0.888-0.28-1.776-0.28-2.696 c0-8.824,7.176-16,16-16c8.824,0,16,7.176,16,16c0,0.92-0.144,1.808-0.288,2.688l-1.152,6.696l6.424,2.216 c2.368,0.824,4.664,1.784,6.896,2.864l6.104,2.952l3.912-5.536c0.52-0.736,1.064-1.472,1.696-2.112 c6.232-6.24,16.4-6.224,22.632,0c6.24,6.24,6.24,16.392,0.024,22.608c-0.664,0.656-1.4,1.192-2.136,1.72l-5.536,3.912 l2.952,6.104c1.088,2.232,2.048,4.528,2.864,6.896l2.216,6.424l6.696-1.152c0.888-0.136,1.776-0.28,2.696-0.28 c8.824,0,16,7.176,16,16C336,336.824,328.824,344,320,344z M321.544,254.464c-11.4-11.392-29.328-12.392-41.848-2.952 C277.496,235.984,264.12,224,248,224s-29.496,11.976-31.688,27.504c-12.512-9.416-30.44-8.456-41.848,2.96 c-11.392,11.392-12.384,29.312-2.952,41.848c-12.848,1.816-23.16,11.336-26.368,23.688H48V48h400v272h-97.136 c-3.208-12.352-13.512-21.872-26.36-23.688C333.928,283.792,332.944,265.856,321.544,254.464z M480,352H341.008 c4.752-4.168,8.216-9.704,9.856-16H464V32H32v304h113.136c1.64,6.296,5.096,11.832,9.848,16H16V16h464V352z"/> <rect x="296" y="64" width="136" height="16"/> <rect x="112" y="112" width="320" height="16"/> <rect x="64" y="144" width="368" height="16"/> <rect x="64" y="176" width="368" height="16"/> <rect x="160" y="208" width="16" height="16"/> <rect x="64" y="208" width="80" height="16"/> <path d="M248,288c-22.056,0-40,17.944-40,40c0,22.056,17.944,40,40,40c22.056,0,40-17.944,40-40C288,305.944,270.056,288,248,288 z M248,352c-13.232,0-24-10.768-24-24s10.768-24,24-24s24,10.768,24,24S261.232,352,248,352z"/> </g> </g> </g> </g>

</svg>